<?xml version="1.0" standalone="no"?>
<!DOCTYPE svg PUBLIC "-//W3C//DTD SVG 20010904//EN"
 "http://www.w3.org/TR/2001/REC-SVG-20010904/DTD/svg10.dtd">
<svg version="1.0" xmlns="http://www.w3.org/2000/svg"
 width="333.000000pt" height="333.000000pt" viewBox="0 0 333.000000 333.000000"
 preserveAspectRatio="xMidYMid meet">
<metadata>
Created by potrace 1.11, written by Peter Selinger 2001-2013
</metadata>
<g transform="translate(0.000000,333.000000) scale(0.100000,-0.100000)"
fill="#000000" stroke="none">
<path d="M500 3214 c-135 -48 -221 -169 -216 -300 4 -70 31 -124 97 -191 59
-60 181 -141 225 -149 61 -11 114 30 188 145 75 115 85 136 100 199 29 125
-19 213 -154 280 -68 34 -171 41 -240 16z"/>
<path d="M1054 2840 c-83 -18 -240 -146 -319 -260 l-27 -39 72 -68 c89 -84
130 -112 189 -130 102 -32 209 -6 280 67 43 45 64 104 63 175 -2 70 -7 88 -39
147 -46 86 -130 127 -219 108z"/>
<path d="M2215 2745 c-152 -23 -310 -88 -415 -174 -92 -74 -202 -198 -248
-280 -64 -113 -77 -147 -108 -301 -10 -47 -10 -234 0 -290 14 -86 85 -215 159
-291 l36 -37 -107 1 c-59 1 -119 -1 -133 -6 -26 -7 -28 -4 -64 91 -83 215
-184 398 -303 547 -36 44 -69 81 -73 83 -4 2 -5 27 -2 57 7 69 -18 123 -95
202 -81 83 -192 173 -214 173 -13 0 -97 -119 -122 -174 -36 -80 -54 -172 -43
-233 7 -42 16 -60 46 -89 104 -98 220 -102 339 -11 l52 40 23 -24 c33 -34 105
-132 158 -214 59 -91 115 -204 169 -340 39 -96 44 -120 45 -186 0 -71 2 -80
32 -117 34 -42 43 -74 107 -372 20 -91 38 -174 41 -185 4 -20 65 -52 65 -34 0
5 -9 49 -19 97 -11 48 -22 98 -25 112 -2 14 -18 85 -35 159 -17 74 -29 136
-27 138 2 2 14 -1 28 -6 13 -5 49 -8 79 -6 l56 2 -5 -72 c-16 -258 140 -510
395 -639 53 -26 145 -63 180 -71 137 -32 126 -27 129 -68 4 -39 7 -37 -61 -41
-23 -1 -30 -6 -30 -21 0 -18 7 -20 65 -20 l65 0 0 58 0 57 70 -2 c39 -2 73 -7
77 -13 4 -5 8 -29 8 -53 l0 -43 -40 3 c-22 1 -45 -3 -52 -10 -22 -22 6 -33 73
-30 l64 3 -3 70 -4 70 83 13 c334 53 536 260 543 557 l1 85 45 28 c76 49 100
82 107 143 4 44 2 58 -14 78 -23 28 -98 49 -165 45 -26 -1 -48 2 -48 7 0 5 4
9 8 9 16 0 113 105 137 149 36 62 66 200 69 311 3 84 -11 242 -29 335 -17 89
-46 196 -65 239 -62 146 -240 317 -406 392 -213 95 -405 127 -599 99z"/>
<path d="M180 2650 c-138 -26 -219 -178 -161 -306 38 -85 131 -147 221 -148
47 -1 62 4 105 33 127 87 238 238 218 298 -12 35 -71 66 -188 98 -102 28 -147
34 -195 25z"/>
</g>
</svg>
